solid Untitled-632dac3b
facet normal 1.0 5.577279115294121e-16 -1.1824079673680054e-15
  outer loop
    vertex 0.11560477205779275 0.026607785103927063 3.3985919362426044e-17
    vertex 0.11560477205779278 0.02760778510392702 0.0010000000000000477
    vertex 0.11560477205779275 0.026607785103927063 0.0544857330021386
  endloop
endfacet
facet normal 1.0 5.577279115294121e-16 -1.1824079673680054e-15
  outer loop
    vertex 0.11560477205779278 0.02760778510392702 0.0010000000000000477
    vertex 0.11560477205779275 0.026607785103927063 3.3985919362426044e-17
    vertex 0.11560477205779275 0.08360778510392697 3.440550669734536e-17
  endloop
endfacet
facet normal 1.0 5.577279115294121e-16 -1.1824079673680054e-15
  outer loop
    vertex 0.11560477205779278 0.02760778510392702 0.0010000000000000477
    vertex 0.11560477205779275 0.08360778510392697 3.440550669734536e-17
    vertex 0.11560477205779261 0.08260778510392698 0.0010000000000000185
  endloop
endfacet
facet normal 1.0 5.577279115294121e-16 -1.1824079673680054e-15
  outer loop
    vertex 0.11560477205779261 0.08260778510392698 0.0010000000000000185
    vertex 0.11560477205779275 0.08360778510392697 3.440550669734536e-17
    vertex 0.11560477205779275 0.08260778510392698 0.001030042553036422
  endloop
endfacet
facet normal 1.0 5.577279115294121e-16 -1.1824079673680054e-15
  outer loop
    vertex 0.11560477205779275 0.08260778510392698 0.001030042553036422
    vertex 0.11560477205779275 0.08360778510392697 3.440550669734536e-17
    vertex 0.11560477205779283 0.08260778510392698 0.05448573300213865
  endloop
endfacet
facet normal 1.0 5.577279115294121e-16 -1.1824079673680054e-15
  outer loop
    vertex 0.11560477205779283 0.08260778510392698 0.05448573300213865
    vertex 0.11560477205779275 0.08360778510392697 3.440550669734536e-17
    vertex 0.11560477205779275 0.08360778510392697 0.05448573300213858
  endloop
endfacet
facet normal 1.0 5.577279115294121e-16 -1.1824079673680054e-15
  outer loop
    vertex 0.11560477205779278 0.02760778510392702 0.0010000000000000477
    vertex 0.11560477205779283 0.02760778510392702 0.054485733002138624
    vertex 0.11560477205779275 0.026607785103927063 0.0544857330021386
  endloop
endfacet
facet normal 1.0 5.577279115294121e-16 -1.1824079673680054e-15
  outer loop
    vertex 0.11560477205779283 0.02760778510392702 0.054485733002138624
    vertex 0.11560477205779278 0.02760778510392702 0.0010000000000000477
    vertex 0.11560477205779275 0.02760778510392702 0.001030042553036422
  endloop
endfacet
facet normal 0.0 1.0 0.0
  outer loop
    vertex 0.1148803500586302 0.08260778510392698 0.0010300425530364093
    vertex 0.11560477205779261 0.08260778510392698 0.0010000000000000185
    vertex 0.11488035005863022 0.08260778510392698 0.001000000000000015
  endloop
endfacet
facet normal 0.0 1.0 0.0
  outer loop
    vertex 0.11560477205779261 0.08260778510392698 0.0010000000000000185
    vertex 0.1148803500586302 0.08260778510392698 0.0010300425530364093
    vertex 0.11560477205779275 0.08260778510392698 0.001030042553036422
  endloop
endfacet
facet normal 0.0 -1.0 0.0
  outer loop
    vertex 0.11560477205779275 0.08360778510392697 0.05448573300213858
    vertex 0.11293961479772248 0.08360778510392697 0.02082456208155213
    vertex 0.11560477205779275 0.08360778510392697 3.440550669734536e-17
  endloop
endfacet
facet normal 0.0 -1.0 0.0
  outer loop
    vertex 0.11293961479772248 0.08360778510392697 0.02082456208155213
    vertex 0.11560477205779275 0.08360778510392697 0.05448573300213858
    vertex 0.11293961479772248 0.08360778510392697 0.05082456208155214
  endloop
endfacet
facet normal 0.0 -1.0 0.0
  outer loop
    vertex 0.11293961479772248 0.08360778510392697 0.05082456208155214
    vertex 0.11560477205779275 0.08360778510392697 0.05448573300213858
    vertex 0.03293961479772248 0.08360778510392697 0.05082456208155214
  endloop
endfacet
facet normal 0.0 -1.0 0.0
  outer loop
    vertex 0.03293961479772248 0.08360778510392697 0.05082456208155214
    vertex 0.11560477205779275 0.08360778510392697 0.05448573300213858
    vertex 0.026505350058630094 0.08360778510392697 0.05448573300213851
  endloop
endfacet
facet normal 0.0 -1.0 0.0
  outer loop
    vertex 0.026505350058630108 0.08360778510392697 1.412903329425902e-19
    vertex 0.03293961479772248 0.08360778510392697 0.02082456208155213
    vertex 0.026505350058630094 0.08360778510392697 0.05448573300213851
  endloop
endfacet
facet normal 0.0 -1.0 0.0
  outer loop
    vertex 0.03293961479772248 0.08360778510392697 0.02082456208155213
    vertex 0.026505350058630108 0.08360778510392697 1.412903329425902e-19
    vertex 0.11560477205779275 0.08360778510392697 3.440550669734536e-17
  endloop
endfacet
facet normal 0.0 -1.0 0.0
  outer loop
    vertex 0.03293961479772248 0.08360778510392697 0.02082456208155213
    vertex 0.11560477205779275 0.08360778510392697 3.440550669734536e-17
    vertex 0.11293961479772248 0.08360778510392697 0.02082456208155213
  endloop
endfacet
facet normal 0.0 -1.0 0.0
  outer loop
    vertex 0.026505350058630094 0.08360778510392697 0.05448573300213851
    vertex 0.03293961479772248 0.08360778510392697 0.02082456208155213
    vertex 0.03293961479772248 0.08360778510392697 0.05082456208155214
  endloop
endfacet
facet normal -1.0 0.0 0.0
  outer loop
    vertex 0.027505350058630095 0.07160778510392697 0.004999999999999995
    vertex 0.027505350058630095 0.05960778510392697 0.0009999999999999944
    vertex 0.027505350058630095 0.05960778510392697 0.004999999999999994
  endloop
endfacet
facet normal -1.0 0.0 0.0
  outer loop
    vertex 0.027505350058630095 0.05960778510392697 0.0009999999999999944
    vertex 0.027505350058630095 0.07160778510392697 0.004999999999999995
    vertex 0.027505350058630095 0.07160778510392697 0.0009999999999999955
  endloop
endfacet
facet normal 1.0 3.1977333948145367e-31 -1.6881070412410749e-15
  outer loop
    vertex 0.11560477205779275 0.08260778510392698 0.001030042553036422
    vertex 0.11560477205779283 0.02760778510392702 0.054485733002138624
    vertex 0.11560477205779275 0.02760778510392702 0.001030042553036422
  endloop
endfacet
facet normal 1.0 3.1977333948145367e-31 -1.6881070412410749e-15
  outer loop
    vertex 0.11560477205779283 0.02760778510392702 0.054485733002138624
    vertex 0.11560477205779275 0.08260778510392698 0.001030042553036422
    vertex 0.11560477205779283 0.08260778510392698 0.05448573300213865
  endloop
endfacet
facet normal 0.0 -2.114974861910927e-15 1.0
  outer loop
    vertex 0.027505350058630126 0.05960778510392697 0.015999999999999993
    vertex 0.02650535005863014 0.07160778510392694 0.01600000000000002
    vertex 0.02650535005863014 0.05960778510392697 0.015999999999999993
  endloop
endfacet
facet normal 0.0 -2.114974861910927e-15 1.0
  outer loop
    vertex 0.02650535005863014 0.07160778510392694 0.01600000000000002
    vertex 0.027505350058630126 0.05960778510392697 0.015999999999999993
    vertex 0.027505350058630126 0.07160778510392694 0.01600000000000002
  endloop
endfacet
facet normal 1.6110965550532876e-29 1.0 8.621553577216501e-16
  outer loop
    vertex 0.02650535005863012 0.040607785103926985 0.004999999999999999
    vertex 0.027505350058630106 0.04060778510392696 0.015999999999999993
    vertex 0.027505350058630106 0.040607785103926985 0.004999999999999983
  endloop
endfacet
facet normal 1.6110965550532876e-29 1.0 8.621553577216501e-16
  outer loop
    vertex 0.027505350058630106 0.04060778510392696 0.015999999999999993
    vertex 0.02650535005863012 0.040607785103926985 0.004999999999999999
    vertex 0.02650535005863012 0.04060778510392696 0.015999999999999993
  endloop
endfacet
facet normal 7.785424754645256e-15 -1.0 1.877314806856578e-13
  outer loop
    vertex 0.11560477205779278 0.02760778510392702 0.0010000000000000477
    vertex 0.1148803500586302 0.02760778510392702 0.0010300425530364093
    vertex 0.11488035005863022 0.027607785103927005 0.0009999999999999957
  endloop
endfacet
facet normal 7.785424754645256e-15 -1.0 1.877314806856578e-13
  outer loop
    vertex 0.1148803500586302 0.02760778510392702 0.0010300425530364093
    vertex 0.11560477205779278 0.02760778510392702 0.0010000000000000477
    vertex 0.11560477205779275 0.02760778510392702 0.001030042553036422
  endloop
endfacet
facet normal 5.287437154777317e-16 -2.937465085987393e-17 -1.0
  outer loop
    vertex 0.027505350058630095 0.07160778510392697 0.004999999999999995
    vertex 0.026505350058630108 0.05960778510392697 0.004999999999999994
    vertex 0.026505350058630108 0.07160778510392697 0.004999999999999993
  endloop
endfacet
facet normal 5.287437154777317e-16 -2.937465085987393e-17 -1.0
  outer loop
    vertex 0.026505350058630108 0.05960778510392697 0.004999999999999994
    vertex 0.027505350058630095 0.07160778510392697 0.004999999999999995
    vertex 0.027505350058630095 0.05960778510392697 0.004999999999999994
  endloop
endfacet
facet normal -2.825140346753026e-16 1.945757592353718e-17 1.0
  outer loop
    vertex 0.11488035005863022 0.027607785103927005 0.0009999999999999957
    vertex 0.027505350058630095 0.03160778510392698 0.0009999999999999955
    vertex 0.027505350058630095 0.02760778510392702 0.0009999999999999948
  endloop
endfacet
facet normal -2.825140346753026e-16 1.945757592353718e-17 1.0
  outer loop
    vertex 0.027505350058630095 0.03160778510392698 0.0009999999999999955
    vertex 0.11488035005863022 0.027607785103927005 0.0009999999999999957
    vertex 0.027505350058630095 0.040607785103926985 0.0009999999999999825
  endloop
endfacet
facet normal -2.825140346753026e-16 1.945757592353718e-17 1.0
  outer loop
    vertex 0.027505350058630095 0.040607785103926985 0.0009999999999999825
    vertex 0.11488035005863022 0.027607785103927005 0.0009999999999999957
    vertex 0.027505350058630095 0.05960778510392697 0.0009999999999999944
  endloop
endfacet
facet normal -2.825140346753026e-16 1.945757592353718e-17 1.0
  outer loop
    vertex 0.027505350058630095 0.05960778510392697 0.0009999999999999944
    vertex 0.11488035005863022 0.027607785103927005 0.0009999999999999957
    vertex 0.027505350058630095 0.07160778510392697 0.0009999999999999955
  endloop
endfacet
facet normal -2.825140346753026e-16 1.945757592353718e-17 1.0
  outer loop
    vertex 0.027505350058630095 0.07160778510392697 0.0009999999999999955
    vertex 0.11488035005863022 0.027607785103927005 0.0009999999999999957
    vertex 0.027505350058630095 0.08260778510392698 0.0009999999999999957
  endloop
endfacet
facet normal -2.825140346753026e-16 1.945757592353718e-17 1.0
  outer loop
    vertex 0.027505350058630095 0.08260778510392698 0.0009999999999999957
    vertex 0.11488035005863022 0.027607785103927005 0.0009999999999999957
    vertex 0.11488035005863022 0.08260778510392698 0.001000000000000015
  endloop
endfacet
facet normal -2.825140346753026e-16 1.945757592353718e-17 1.0
  outer loop
    vertex 0.11488035005863022 0.08260778510392698 0.001000000000000015
    vertex 0.11488035005863022 0.027607785103927005 0.0009999999999999957
    vertex 0.11560477205779278 0.02760778510392702 0.0010000000000000477
  endloop
endfacet
facet normal -2.825140346753026e-16 1.945757592353718e-17 1.0
  outer loop
    vertex 0.11488035005863022 0.08260778510392698 0.001000000000000015
    vertex 0.11560477205779278 0.02760778510392702 0.0010000000000000477
    vertex 0.11560477205779261 0.08260778510392698 0.0010000000000000185
  endloop
endfacet
facet normal 0.0 -1.0 0.0
  outer loop
    vertex 0.027505350058630106 0.03160778510392698 0.004999999999999995
    vertex 0.02650535005863012 0.03160778510392698 0.015999999999999993
    vertex 0.02650535005863012 0.03160778510392698 0.004999999999999993
  endloop
endfacet
facet normal 0.0 -1.0 0.0
  outer loop
    vertex 0.02650535005863012 0.03160778510392698 0.015999999999999993
    vertex 0.027505350058630106 0.03160778510392698 0.004999999999999995
    vertex 0.027505350058630106 0.03160778510392698 0.015999999999999993
  endloop
endfacet
facet normal -1.0 5.41709857028974e-30 3.789329960923745e-15
  outer loop
    vertex 0.027505350058630106 0.040607785103926985 0.004999999999999983
    vertex 0.027505350058630095 0.03160778510392698 0.0009999999999999955
    vertex 0.027505350058630106 0.03160778510392698 0.004999999999999995
  endloop
endfacet
facet normal -1.0 5.41709857028974e-30 3.789329960923745e-15
  outer loop
    vertex 0.027505350058630095 0.03160778510392698 0.0009999999999999955
    vertex 0.027505350058630106 0.040607785103926985 0.004999999999999983
    vertex 0.027505350058630095 0.040607785103926985 0.0009999999999999825
  endloop
endfacet
facet normal -8.49118275024555e-17 -1.0 -4.427491017813048e-17
  outer loop
    vertex 0.11488035005863025 0.02760778510392702 0.05448573300213859
    vertex 0.11476669405695539 0.027607785103927005 0.044485733002138615
    vertex 0.1148803500586302 0.02760778510392702 0.0010300425530364093
  endloop
endfacet
facet normal -8.49118275024555e-17 -1.0 -4.427491017813048e-17
  outer loop
    vertex 0.11476669405695539 0.027607785103927005 0.044485733002138615
    vertex 0.11488035005863025 0.02760778510392702 0.05448573300213859
    vertex 0.11476669405695539 0.027607785103927005 0.05448573300213862
  endloop
endfacet
facet normal -8.49118275024555e-17 -1.0 -4.427491017813048e-17
  outer loop
    vertex 0.11488035005863022 0.027607785103927005 0.0009999999999999957
    vertex 0.02750535005863008 0.02760778510392702 0.054485733002138534
    vertex 0.027505350058630095 0.02760778510392702 0.0009999999999999948
  endloop
endfacet
facet normal -8.49118275024555e-17 -1.0 -4.427491017813048e-17
  outer loop
    vertex 0.02750535005863008 0.02760778510392702 0.054485733002138534
    vertex 0.11488035005863022 0.027607785103927005 0.0009999999999999957
    vertex 0.1148803500586302 0.02760778510392702 0.0010300425530364093
  endloop
endfacet
facet normal -8.49118275024555e-17 -1.0 -4.427491017813048e-17
  outer loop
    vertex 0.02750535005863008 0.02760778510392702 0.054485733002138534
    vertex 0.1148803500586302 0.02760778510392702 0.0010300425530364093
    vertex 0.10476669405695538 0.027607785103927005 0.044485733002138615
  endloop
endfacet
facet normal -8.49118275024555e-17 -1.0 -4.427491017813048e-17
  outer loop
    vertex 0.10476669405695538 0.027607785103927005 0.044485733002138615
    vertex 0.1148803500586302 0.02760778510392702 0.0010300425530364093
    vertex 0.11476669405695539 0.027607785103927005 0.044485733002138615
  endloop
endfacet
facet normal -8.49118275024555e-17 -1.0 -4.427491017813048e-17
  outer loop
    vertex 0.02750535005863008 0.02760778510392702 0.054485733002138534
    vertex 0.10476669405695538 0.027607785103927005 0.044485733002138615
    vertex 0.10476669405695538 0.027607785103927005 0.05448573300213862
  endloop
endfacet
facet normal -3.789329960923745e-15 -3.329127097452377e-16 -1.0
  outer loop
    vertex 0.027505350058630106 0.040607785103926985 0.004999999999999983
    vertex 0.02650535005863012 0.03160778510392698 0.004999999999999993
    vertex 0.02650535005863012 0.040607785103926985 0.004999999999999999
  endloop
endfacet
facet normal -3.789329960923745e-15 -3.329127097452377e-16 -1.0
  outer loop
    vertex 0.02650535005863012 0.03160778510392698 0.004999999999999993
    vertex 0.027505350058630106 0.040607785103926985 0.004999999999999983
    vertex 0.027505350058630106 0.03160778510392698 0.004999999999999995
  endloop
endfacet
facet normal 0.0 -1.0 0.0
  outer loop
    vertex 0.027505350058630126 0.05960778510392697 0.015999999999999993
    vertex 0.026505350058630108 0.05960778510392697 0.004999999999999994
    vertex 0.027505350058630095 0.05960778510392697 0.004999999999999994
  endloop
endfacet
facet normal 0.0 -1.0 0.0
  outer loop
    vertex 0.026505350058630108 0.05960778510392697 0.004999999999999994
    vertex 0.027505350058630126 0.05960778510392697 0.015999999999999993
    vertex 0.02650535005863014 0.05960778510392697 0.015999999999999993
  endloop
endfacet
facet normal 0.0 1.0 0.0
  outer loop
    vertex 0.027505350058630095 0.08260778510392698 0.0009999999999999957
    vertex 0.03293961479772248 0.08260778510392698 0.02082456208155213
    vertex 0.11488035005863022 0.08260778510392698 0.001000000000000015
  endloop
endfacet
facet normal 0.0 1.0 0.0
  outer loop
    vertex 0.03293961479772248 0.08260778510392698 0.02082456208155213
    vertex 0.027505350058630095 0.08260778510392698 0.0009999999999999957
    vertex 0.02750535005863008 0.08260778510392698 0.05448573300213851
  endloop
endfacet
facet normal 0.0 1.0 0.0
  outer loop
    vertex 0.11488035005863022 0.08260778510392698 0.001000000000000015
    vertex 0.03293961479772248 0.08260778510392698 0.02082456208155213
    vertex 0.1148803500586302 0.08260778510392698 0.0010300425530364093
  endloop
endfacet
facet normal 0.0 1.0 0.0
  outer loop
    vertex 0.03293961479772248 0.08260778510392698 0.02082456208155213
    vertex 0.02750535005863008 0.08260778510392698 0.05448573300213851
    vertex 0.03293961479772248 0.08260778510392698 0.05082456208155214
  endloop
endfacet
facet normal 0.0 1.0 0.0
  outer loop
    vertex 0.03293961479772248 0.08260778510392698 0.05082456208155214
    vertex 0.02750535005863008 0.08260778510392698 0.05448573300213851
    vertex 0.11293961479772248 0.08260778510392698 0.05082456208155214
  endloop
endfacet
facet normal 0.0 1.0 0.0
  outer loop
    vertex 0.1148803500586302 0.08260778510392698 0.0010300425530364093
    vertex 0.11293961479772248 0.08260778510392698 0.02082456208155213
    vertex 0.11488035005863025 0.08260778510392698 0.05448573300213859
  endloop
endfacet
facet normal 0.0 1.0 0.0
  outer loop
    vertex 0.11293961479772248 0.08260778510392698 0.02082456208155213
    vertex 0.1148803500586302 0.08260778510392698 0.0010300425530364093
    vertex 0.03293961479772248 0.08260778510392698 0.02082456208155213
  endloop
endfacet
facet normal 0.0 1.0 0.0
  outer loop
    vertex 0.11488035005863025 0.08260778510392698 0.05448573300213859
    vertex 0.11293961479772248 0.08260778510392698 0.02082456208155213
    vertex 0.11293961479772248 0.08260778510392698 0.05082456208155214
  endloop
endfacet
facet normal 0.0 1.0 0.0
  outer loop
    vertex 0.11488035005863025 0.08260778510392698 0.05448573300213859
    vertex 0.11293961479772248 0.08260778510392698 0.05082456208155214
    vertex 0.02750535005863008 0.08260778510392698 0.05448573300213851
  endloop
endfacet
facet normal 1.7517205697970683e-14 0.0 -1.0
  outer loop
    vertex 0.11560477205779275 0.08260778510392698 0.001030042553036422
    vertex 0.1148803500586302 0.02760778510392702 0.0010300425530364093
    vertex 0.1148803500586302 0.08260778510392698 0.0010300425530364093
  endloop
endfacet
facet normal 1.7517205697970683e-14 0.0 -1.0
  outer loop
    vertex 0.1148803500586302 0.02760778510392702 0.0010300425530364093
    vertex 0.11560477205779275 0.08260778510392698 0.001030042553036422
    vertex 0.11560477205779275 0.02760778510392702 0.001030042553036422
  endloop
endfacet
facet normal 0.0 1.0 0.0
  outer loop
    vertex 0.10476669405695538 0.027607785103927005 0.05448573300213862
    vertex 0.11476669405695539 0.027607785103927005 0.044485733002138615
    vertex 0.10476669405695538 0.027607785103927005 0.044485733002138615
  endloop
endfacet
facet normal 0.0 1.0 0.0
  outer loop
    vertex 0.11476669405695539 0.027607785103927005 0.044485733002138615
    vertex 0.10476669405695538 0.027607785103927005 0.05448573300213862
    vertex 0.11476669405695539 0.027607785103927005 0.05448573300213862
  endloop
endfacet
facet normal 0.0 0.0 1.0
  outer loop
    vertex 0.027505350058630106 0.03160778510392698 0.015999999999999993
    vertex 0.02650535005863012 0.04060778510392696 0.015999999999999993
    vertex 0.02650535005863012 0.03160778510392698 0.015999999999999993
  endloop
endfacet
facet normal 0.0 0.0 1.0
  outer loop
    vertex 0.02650535005863012 0.04060778510392696 0.015999999999999993
    vertex 0.027505350058630106 0.03160778510392698 0.015999999999999993
    vertex 0.027505350058630106 0.04060778510392696 0.015999999999999993
  endloop
endfacet
facet normal 0.0 1.0 0.0
  outer loop
    vertex 0.026505350058630094 0.026607785103927063 0.054485733002138534
    vertex 0.11560477205779275 0.026607785103927063 3.3985919362426044e-17
    vertex 0.026505350058630108 0.026607785103927063 1.0314734058593432e-19
  endloop
endfacet
facet normal 0.0 1.0 0.0
  outer loop
    vertex 0.11560477205779275 0.026607785103927063 3.3985919362426044e-17
    vertex 0.026505350058630094 0.026607785103927063 0.054485733002138534
    vertex 0.11560477205779275 0.026607785103927063 0.0544857330021386
  endloop
endfacet
facet normal -4.3405973935113e-18 3.231012728841681e-18 -1.0
  outer loop
    vertex 0.11560477205779275 0.08360778510392697 3.440550669734536e-17
    vertex 0.026505350058630108 0.026607785103927063 1.0314734058593432e-19
    vertex 0.026505350058630108 0.08360778510392697 1.412903329425902e-19
  endloop
endfacet
facet normal -4.3405973935113e-18 3.231012728841681e-18 -1.0
  outer loop
    vertex 0.026505350058630108 0.026607785103927063 1.0314734058593432e-19
    vertex 0.11560477205779275 0.08360778510392697 3.440550669734536e-17
    vertex 0.11560477205779275 0.026607785103927063 3.3985919362426044e-17
  endloop
endfacet
facet normal 1.6889668784682264e-28 1.0 -7.184627981013632e-17
  outer loop
    vertex 0.02650535005863014 0.07160778510392694 0.01600000000000002
    vertex 0.027505350058630095 0.07160778510392697 0.004999999999999995
    vertex 0.026505350058630108 0.07160778510392697 0.004999999999999993
  endloop
endfacet
facet normal 1.6889668784682264e-28 1.0 -7.184627981013632e-17
  outer loop
    vertex 0.027505350058630095 0.07160778510392697 0.004999999999999995
    vertex 0.02650535005863014 0.07160778510392694 0.01600000000000002
    vertex 0.027505350058630126 0.07160778510392694 0.01600000000000002
  endloop
endfacet
facet normal -1.0127891451684251e-15 1.397694192757126e-16 1.0
  outer loop
    vertex 0.026505350058630094 0.026607785103927063 0.054485733002138534
    vertex 0.02750535005863008 0.02760778510392702 0.054485733002138534
    vertex 0.026505350058630094 0.08360778510392697 0.05448573300213851
  endloop
endfacet
facet normal -1.0127891451684251e-15 1.397694192757126e-16 1.0
  outer loop
    vertex 0.02750535005863008 0.02760778510392702 0.054485733002138534
    vertex 0.026505350058630094 0.026607785103927063 0.054485733002138534
    vertex 0.11560477205779275 0.026607785103927063 0.0544857330021386
  endloop
endfacet
facet normal -1.0127891451684251e-15 1.397694192757126e-16 1.0
  outer loop
    vertex 0.02750535005863008 0.02760778510392702 0.054485733002138534
    vertex 0.11560477205779275 0.026607785103927063 0.0544857330021386
    vertex 0.10476669405695538 0.027607785103927005 0.05448573300213862
  endloop
endfacet
facet normal -1.0127891451684251e-15 1.397694192757126e-16 1.0
  outer loop
    vertex 0.10476669405695538 0.027607785103927005 0.05448573300213862
    vertex 0.11560477205779275 0.026607785103927063 0.0544857330021386
    vertex 0.11476669405695539 0.027607785103927005 0.05448573300213862
  endloop
endfacet
facet normal -1.0127891451684251e-15 1.397694192757126e-16 1.0
  outer loop
    vertex 0.11476669405695539 0.027607785103927005 0.05448573300213862
    vertex 0.11560477205779275 0.026607785103927063 0.0544857330021386
    vertex 0.11488035005863025 0.02760778510392702 0.05448573300213859
  endloop
endfacet
facet normal -1.0127891451684251e-15 1.397694192757126e-16 1.0
  outer loop
    vertex 0.11488035005863025 0.02760778510392702 0.05448573300213859
    vertex 0.11560477205779275 0.026607785103927063 0.0544857330021386
    vertex 0.11488035005863025 0.08260778510392698 0.05448573300213859
  endloop
endfacet
facet normal -1.0127891451684251e-15 1.397694192757126e-16 1.0
  outer loop
    vertex 0.026505350058630094 0.08360778510392697 0.05448573300213851
    vertex 0.02750535005863008 0.08260778510392698 0.05448573300213851
    vertex 0.11560477205779275 0.08360778510392697 0.05448573300213858
  endloop
endfacet
facet normal -1.0127891451684251e-15 1.397694192757126e-16 1.0
  outer loop
    vertex 0.02750535005863008 0.08260778510392698 0.05448573300213851
    vertex 0.026505350058630094 0.08360778510392697 0.05448573300213851
    vertex 0.02750535005863008 0.02760778510392702 0.054485733002138534
  endloop
endfacet
facet normal -1.0127891451684251e-15 1.397694192757126e-16 1.0
  outer loop
    vertex 0.11560477205779275 0.08360778510392697 0.05448573300213858
    vertex 0.02750535005863008 0.08260778510392698 0.05448573300213851
    vertex 0.11488035005863025 0.08260778510392698 0.05448573300213859
  endloop
endfacet
facet normal -1.0127891451684251e-15 1.397694192757126e-16 1.0
  outer loop
    vertex 0.11560477205779275 0.08360778510392697 0.05448573300213858
    vertex 0.11488035005863025 0.08260778510392698 0.05448573300213859
    vertex 0.11560477205779275 0.026607785103927063 0.0544857330021386
  endloop
endfacet
facet normal -1.0127891451684251e-15 1.397694192757126e-16 1.0
  outer loop
    vertex 0.11560477205779275 0.08360778510392697 0.05448573300213858
    vertex 0.11560477205779275 0.026607785103927063 0.0544857330021386
    vertex 0.11560477205779283 0.02760778510392702 0.054485733002138624
  endloop
endfacet
facet normal -1.0127891451684251e-15 1.397694192757126e-16 1.0
  outer loop
    vertex 0.11560477205779275 0.08360778510392697 0.05448573300213858
    vertex 0.11560477205779283 0.02760778510392702 0.054485733002138624
    vertex 0.11560477205779283 0.08260778510392698 0.05448573300213865
  endloop
endfacet
facet normal 1.0 3.651229053999675e-32 2.0702421181979627e-16
  outer loop
    vertex 0.026505350058630108 0.026607785103927063 1.0314734058593432e-19
    vertex 0.02650535005863012 0.03160778510392698 0.004999999999999993
    vertex 0.026505350058630094 0.026607785103927063 0.054485733002138534
  endloop
endfacet
facet normal 1.0 3.651229053999675e-32 2.0702421181979627e-16
  outer loop
    vertex 0.02650535005863012 0.03160778510392698 0.004999999999999993
    vertex 0.026505350058630108 0.026607785103927063 1.0314734058593432e-19
    vertex 0.026505350058630108 0.08360778510392697 1.412903329425902e-19
  endloop
endfacet
facet normal 1.0 3.651229053999675e-32 2.0702421181979627e-16
  outer loop
    vertex 0.02650535005863012 0.03160778510392698 0.004999999999999993
    vertex 0.026505350058630108 0.08360778510392697 1.412903329425902e-19
    vertex 0.02650535005863012 0.040607785103926985 0.004999999999999999
  endloop
endfacet
facet normal 1.0 3.651229053999675e-32 2.0702421181979627e-16
  outer loop
    vertex 0.02650535005863012 0.040607785103926985 0.004999999999999999
    vertex 0.026505350058630108 0.08360778510392697 1.412903329425902e-19
    vertex 0.026505350058630108 0.05960778510392697 0.004999999999999994
  endloop
endfacet
facet normal 1.0 3.651229053999675e-32 2.0702421181979627e-16
  outer loop
    vertex 0.026505350058630108 0.05960778510392697 0.004999999999999994
    vertex 0.026505350058630108 0.08360778510392697 1.412903329425902e-19
    vertex 0.026505350058630108 0.07160778510392697 0.004999999999999993
  endloop
endfacet
facet normal 1.0 3.651229053999675e-32 2.0702421181979627e-16
  outer loop
    vertex 0.026505350058630094 0.026607785103927063 0.054485733002138534
    vertex 0.02650535005863012 0.03160778510392698 0.015999999999999993
    vertex 0.026505350058630094 0.08360778510392697 0.05448573300213851
  endloop
endfacet
facet normal 1.0 3.651229053999675e-32 2.0702421181979627e-16
  outer loop
    vertex 0.02650535005863012 0.03160778510392698 0.015999999999999993
    vertex 0.026505350058630094 0.026607785103927063 0.054485733002138534
    vertex 0.02650535005863012 0.03160778510392698 0.004999999999999993
  endloop
endfacet
facet normal 1.0 3.651229053999675e-32 2.0702421181979627e-16
  outer loop
    vertex 0.026505350058630094 0.08360778510392697 0.05448573300213851
    vertex 0.02650535005863012 0.03160778510392698 0.015999999999999993
    vertex 0.02650535005863012 0.04060778510392696 0.015999999999999993
  endloop
endfacet
facet normal 1.0 3.651229053999675e-32 2.0702421181979627e-16
  outer loop
    vertex 0.026505350058630094 0.08360778510392697 0.05448573300213851
    vertex 0.02650535005863012 0.04060778510392696 0.015999999999999993
    vertex 0.02650535005863012 0.040607785103926985 0.004999999999999999
  endloop
endfacet
facet normal 1.0 3.651229053999675e-32 2.0702421181979627e-16
  outer loop
    vertex 0.026505350058630094 0.08360778510392697 0.05448573300213851
    vertex 0.02650535005863012 0.040607785103926985 0.004999999999999999
    vertex 0.02650535005863014 0.05960778510392697 0.015999999999999993
  endloop
endfacet
facet normal 1.0 3.651229053999675e-32 2.0702421181979627e-16
  outer loop
    vertex 0.02650535005863014 0.05960778510392697 0.015999999999999993
    vertex 0.02650535005863012 0.040607785103926985 0.004999999999999999
    vertex 0.026505350058630108 0.05960778510392697 0.004999999999999994
  endloop
endfacet
facet normal 1.0 3.651229053999675e-32 2.0702421181979627e-16
  outer loop
    vertex 0.026505350058630094 0.08360778510392697 0.05448573300213851
    vertex 0.02650535005863014 0.05960778510392697 0.015999999999999993
    vertex 0.02650535005863014 0.07160778510392694 0.01600000000000002
  endloop
endfacet
facet normal 1.0 3.651229053999675e-32 2.0702421181979627e-16
  outer loop
    vertex 0.026505350058630094 0.08360778510392697 0.05448573300213851
    vertex 0.02650535005863014 0.07160778510392694 0.01600000000000002
    vertex 0.026505350058630108 0.07160778510392697 0.004999999999999993
  endloop
endfacet
facet normal 1.0 3.651229053999675e-32 2.0702421181979627e-16
  outer loop
    vertex 0.026505350058630094 0.08360778510392697 0.05448573300213851
    vertex 0.026505350058630108 0.07160778510392697 0.004999999999999993
    vertex 0.026505350058630108 0.08360778510392697 1.412903329425902e-19
  endloop
endfacet
facet normal -1.0 0.0 8.440535206205378e-16
  outer loop
    vertex 0.11488035005863025 0.08260778510392698 0.05448573300213859
    vertex 0.1148803500586302 0.02760778510392702 0.0010300425530364093
    vertex 0.11488035005863025 0.02760778510392702 0.05448573300213859
  endloop
endfacet
facet normal -1.0 0.0 8.440535206205378e-16
  outer loop
    vertex 0.1148803500586302 0.02760778510392702 0.0010300425530364093
    vertex 0.11488035005863025 0.08260778510392698 0.05448573300213859
    vertex 0.1148803500586302 0.08260778510392698 0.0010300425530364093
  endloop
endfacet
facet normal -1.0 4.867690064395528e-17 -4.0154651221964226e-16
  outer loop
    vertex 0.02750535005863008 0.02760778510392702 0.054485733002138534
    vertex 0.027505350058630106 0.03160778510392698 0.015999999999999993
    vertex 0.027505350058630095 0.02760778510392702 0.0009999999999999948
  endloop
endfacet
facet normal -1.0 4.867690064395528e-17 -4.0154651221964226e-16
  outer loop
    vertex 0.027505350058630106 0.03160778510392698 0.015999999999999993
    vertex 0.02750535005863008 0.02760778510392702 0.054485733002138534
    vertex 0.02750535005863008 0.08260778510392698 0.05448573300213851
  endloop
endfacet
facet normal -1.0 4.867690064395528e-17 -4.0154651221964226e-16
  outer loop
    vertex 0.027505350058630106 0.03160778510392698 0.015999999999999993
    vertex 0.02750535005863008 0.08260778510392698 0.05448573300213851
    vertex 0.027505350058630106 0.04060778510392696 0.015999999999999993
  endloop
endfacet
facet normal -1.0 4.867690064395528e-17 -4.0154651221964226e-16
  outer loop
    vertex 0.027505350058630106 0.04060778510392696 0.015999999999999993
    vertex 0.02750535005863008 0.08260778510392698 0.05448573300213851
    vertex 0.027505350058630106 0.040607785103926985 0.004999999999999983
  endloop
endfacet
facet normal -1.0 4.867690064395528e-17 -4.0154651221964226e-16
  outer loop
    vertex 0.027505350058630106 0.040607785103926985 0.004999999999999983
    vertex 0.02750535005863008 0.08260778510392698 0.05448573300213851
    vertex 0.027505350058630095 0.040607785103926985 0.0009999999999999825
  endloop
endfacet
facet normal -1.0 4.867690064395528e-17 -4.0154651221964226e-16
  outer loop
    vertex 0.027505350058630095 0.040607785103926985 0.0009999999999999825
    vertex 0.02750535005863008 0.08260778510392698 0.05448573300213851
    vertex 0.027505350058630126 0.05960778510392697 0.015999999999999993
  endloop
endfacet
facet normal -1.0 4.867690064395528e-17 -4.0154651221964226e-16
  outer loop
    vertex 0.027505350058630126 0.05960778510392697 0.015999999999999993
    vertex 0.02750535005863008 0.08260778510392698 0.05448573300213851
    vertex 0.027505350058630126 0.07160778510392694 0.01600000000000002
  endloop
endfacet
facet normal -1.0 4.867690064395528e-17 -4.0154651221964226e-16
  outer loop
    vertex 0.027505350058630126 0.07160778510392694 0.01600000000000002
    vertex 0.02750535005863008 0.08260778510392698 0.05448573300213851
    vertex 0.027505350058630095 0.07160778510392697 0.004999999999999995
  endloop
endfacet
facet normal -1.0 4.867690064395528e-17 -4.0154651221964226e-16
  outer loop
    vertex 0.027505350058630095 0.07160778510392697 0.004999999999999995
    vertex 0.02750535005863008 0.08260778510392698 0.05448573300213851
    vertex 0.027505350058630095 0.07160778510392697 0.0009999999999999955
  endloop
endfacet
facet normal -1.0 4.867690064395528e-17 -4.0154651221964226e-16
  outer loop
    vertex 0.027505350058630095 0.07160778510392697 0.0009999999999999955
    vertex 0.02750535005863008 0.08260778510392698 0.05448573300213851
    vertex 0.027505350058630095 0.08260778510392698 0.0009999999999999957
  endloop
endfacet
facet normal -1.0 4.867690064395528e-17 -4.0154651221964226e-16
  outer loop
    vertex 0.027505350058630126 0.05960778510392697 0.015999999999999993
    vertex 0.027505350058630095 0.05960778510392697 0.0009999999999999944
    vertex 0.027505350058630095 0.040607785103926985 0.0009999999999999825
  endloop
endfacet
facet normal -1.0 4.867690064395528e-17 -4.0154651221964226e-16
  outer loop
    vertex 0.027505350058630095 0.05960778510392697 0.0009999999999999944
    vertex 0.027505350058630126 0.05960778510392697 0.015999999999999993
    vertex 0.027505350058630095 0.05960778510392697 0.004999999999999994
  endloop
endfacet
facet normal -1.0 4.867690064395528e-17 -4.0154651221964226e-16
  outer loop
    vertex 0.027505350058630106 0.03160778510392698 0.015999999999999993
    vertex 0.027505350058630095 0.03160778510392698 0.0009999999999999955
    vertex 0.027505350058630095 0.02760778510392702 0.0009999999999999948
  endloop
endfacet
facet normal -1.0 4.867690064395528e-17 -4.0154651221964226e-16
  outer loop
    vertex 0.027505350058630095 0.03160778510392698 0.0009999999999999955
    vertex 0.027505350058630106 0.03160778510392698 0.015999999999999993
    vertex 0.027505350058630106 0.03160778510392698 0.004999999999999995
  endloop
endfacet
facet normal 0.0 0.0 1.0
  outer loop
    vertex 0.11293961479772248 0.08260778510392698 0.05082456208155214
    vertex 0.03293961479772248 0.08360778510392697 0.05082456208155214
    vertex 0.03293961479772248 0.08260778510392698 0.05082456208155214
  endloop
endfacet
facet normal 0.0 0.0 1.0
  outer loop
    vertex 0.03293961479772248 0.08360778510392697 0.05082456208155214
    vertex 0.11293961479772248 0.08260778510392698 0.05082456208155214
    vertex 0.11293961479772248 0.08360778510392697 0.05082456208155214
  endloop
endfacet
facet normal -1.0 0.0 0.0
  outer loop
    vertex 0.03293961479772248 0.08360778510392697 0.05082456208155214
    vertex 0.03293961479772248 0.08260778510392698 0.02082456208155213
    vertex 0.03293961479772248 0.08260778510392698 0.05082456208155214
  endloop
endfacet
facet normal -1.0 0.0 0.0
  outer loop
    vertex 0.03293961479772248 0.08260778510392698 0.02082456208155213
    vertex 0.03293961479772248 0.08360778510392697 0.05082456208155214
    vertex 0.03293961479772248 0.08360778510392697 0.02082456208155213
  endloop
endfacet
facet normal 0.0 0.0 -1.0
  outer loop
    vertex 0.11293961479772248 0.08360778510392697 0.02082456208155213
    vertex 0.03293961479772248 0.08260778510392698 0.02082456208155213
    vertex 0.03293961479772248 0.08360778510392697 0.02082456208155213
  endloop
endfacet
facet normal 0.0 0.0 -1.0
  outer loop
    vertex 0.03293961479772248 0.08260778510392698 0.02082456208155213
    vertex 0.11293961479772248 0.08360778510392697 0.02082456208155213
    vertex 0.11293961479772248 0.08260778510392698 0.02082456208155213
  endloop
endfacet
facet normal 1.0 0.0 0.0
  outer loop
    vertex 0.11293961479772248 0.08360778510392697 0.02082456208155213
    vertex 0.11293961479772248 0.08260778510392698 0.05082456208155214
    vertex 0.11293961479772248 0.08260778510392698 0.02082456208155213
  endloop
endfacet
facet normal 1.0 0.0 0.0
  outer loop
    vertex 0.11293961479772248 0.08260778510392698 0.05082456208155214
    vertex 0.11293961479772248 0.08360778510392697 0.02082456208155213
    vertex 0.11293961479772248 0.08360778510392697 0.05082456208155214
  endloop
endfacet
endsolid Untitled-632dac3b
