solid Untitled-632da3ca
facet normal 1.0 0.0 0.0
  outer loop
    vertex 0.08737500000000016 0.05499999999999996 5.639932965095795e-17
    vertex 0.08737500000000016 0.0 0.0024999999999999953
    vertex 0.08737500000000016 0.0 0.0
  endloop
endfacet
facet normal 1.0 0.0 0.0
  outer loop
    vertex 0.08737500000000016 0.0 0.0024999999999999953
    vertex 0.08737500000000016 0.05499999999999996 5.639932965095795e-17
    vertex 0.08737500000000016 0.05499999999999996 0.0025000000000000517
  endloop
endfacet
facet normal 0.0 1.0 0.0
  outer loop
    vertex -0.000999999999999987 0.05599999999999995 0.004999999999999979
    vertex 0.08809942199916267 0.05599999999999995 0.0025000000000000404
    vertex -0.000999999999999987 0.05599999999999995 0.002499999999999984
  endloop
endfacet
facet normal 0.0 1.0 0.0
  outer loop
    vertex 0.08809942199916267 0.05599999999999995 0.0025000000000000404
    vertex -0.000999999999999987 0.05599999999999995 0.004999999999999979
    vertex 0.08809942199916267 0.05599999999999995 0.005000000000000036
  endloop
endfacet
facet normal -1.0 0.0 0.0
  outer loop
    vertex -0.000999999999999987 0.05599999999999995 0.004999999999999979
    vertex -0.000999999999999987 -0.000999999999999953 0.0024999999999999953
    vertex -0.000999999999999987 -0.000999999999999953 0.0049999999999999906
  endloop
endfacet
facet normal -1.0 0.0 0.0
  outer loop
    vertex -0.000999999999999987 -0.000999999999999953 0.0024999999999999953
    vertex -0.000999999999999987 0.05599999999999995 0.004999999999999979
    vertex -0.000999999999999987 0.05599999999999995 0.002499999999999984
  endloop
endfacet
facet normal 0.0 -1.0 0.0
  outer loop
    vertex 0.08809942199916267 -0.000999999999999953 0.0049999999999999906
    vertex -0.000999999999999987 -0.000999999999999953 0.0024999999999999953
    vertex 0.08809942199916267 -0.000999999999999953 0.0024999999999999953
  endloop
endfacet
facet normal 0.0 -1.0 0.0
  outer loop
    vertex -0.000999999999999987 -0.000999999999999953 0.0024999999999999953
    vertex 0.08809942199916267 -0.000999999999999953 0.0049999999999999906
    vertex -0.000999999999999987 -0.000999999999999953 0.0049999999999999906
  endloop
endfacet
facet normal 1.0 0.0 0.0
  outer loop
    vertex 0.08809942199916267 0.05599999999999995 0.0025000000000000404
    vertex 0.08809942199916267 -0.000999999999999953 0.0049999999999999906
    vertex 0.08809942199916267 -0.000999999999999953 0.0024999999999999953
  endloop
endfacet
facet normal 1.0 0.0 0.0
  outer loop
    vertex 0.08809942199916267 -0.000999999999999953 0.0049999999999999906
    vertex 0.08809942199916267 0.05599999999999995 0.0025000000000000404
    vertex 0.08809942199916267 0.05599999999999995 0.005000000000000036
  endloop
endfacet
facet normal 0.0 -1.0 0.0
  outer loop
    vertex 0.08737500000000016 0.05499999999999996 5.639932965095795e-17
    vertex 0.0 0.05499999999999996 0.002499999999999984
    vertex 0.0 0.05499999999999996 -1.127986593019159e-17
  endloop
endfacet
facet normal 0.0 -1.0 0.0
  outer loop
    vertex 0.0 0.05499999999999996 0.002499999999999984
    vertex 0.08737500000000016 0.05499999999999996 5.639932965095795e-17
    vertex 0.08737500000000016 0.05499999999999996 0.0025000000000000517
  endloop
endfacet
facet normal -3.164966078651328e-16 -2.9683857711030554e-16 1.0
  outer loop
    vertex 0.08809942199916267 -0.000999999999999953 0.0049999999999999906
    vertex -0.000999999999999987 0.05599999999999995 0.004999999999999979
    vertex -0.000999999999999987 -0.000999999999999953 0.0049999999999999906
  endloop
endfacet
facet normal -3.164966078651328e-16 -2.9683857711030554e-16 1.0
  outer loop
    vertex -0.000999999999999987 0.05599999999999995 0.004999999999999979
    vertex 0.08809942199916267 -0.000999999999999953 0.0049999999999999906
    vertex 0.08809942199916267 0.05599999999999995 0.005000000000000036
  endloop
endfacet
facet normal -3.8729153408383065e-16 -4.101769429160581e-16 1.0
  outer loop
    vertex 0.08737500000000016 0.0 0.0
    vertex 0.0 0.05499999999999996 -1.127986593019159e-17
    vertex 0.0 0.0 0.0
  endloop
endfacet
facet normal -3.8729153408383065e-16 -4.101769429160581e-16 1.0
  outer loop
    vertex 0.0 0.05499999999999996 -1.127986593019159e-17
    vertex 0.08737500000000016 0.0 0.0
    vertex 0.08737500000000016 0.05499999999999996 5.639932965095795e-17
  endloop
endfacet
facet normal 3.622919748115525e-16 4.832534569757796e-16 -1.0
  outer loop
    vertex -0.000999999999999987 -0.000999999999999953 0.0024999999999999953
    vertex 0.0 0.0 0.0024999999999999953
    vertex 0.08809942199916267 -0.000999999999999953 0.0024999999999999953
  endloop
endfacet
facet normal 3.622919748115525e-16 4.832534569757796e-16 -1.0
  outer loop
    vertex 0.0 0.0 0.0024999999999999953
    vertex -0.000999999999999987 -0.000999999999999953 0.0024999999999999953
    vertex 0.0 0.05499999999999996 0.002499999999999984
  endloop
endfacet
facet normal 3.622919748115525e-16 4.832534569757796e-16 -1.0
  outer loop
    vertex 0.08809942199916267 -0.000999999999999953 0.0024999999999999953
    vertex 0.0 0.0 0.0024999999999999953
    vertex 0.08737500000000016 0.0 0.0024999999999999953
  endloop
endfacet
facet normal 3.622919748115525e-16 4.832534569757796e-16 -1.0
  outer loop
    vertex 0.08809942199916267 -0.000999999999999953 0.0024999999999999953
    vertex 0.08737500000000016 0.0 0.0024999999999999953
    vertex 0.08737500000000016 0.05499999999999996 0.0025000000000000517
  endloop
endfacet
facet normal 3.622919748115525e-16 4.832534569757796e-16 -1.0
  outer loop
    vertex -0.000999999999999987 0.05599999999999995 0.002499999999999984
    vertex 0.0 0.05499999999999996 0.002499999999999984
    vertex -0.000999999999999987 -0.000999999999999953 0.0024999999999999953
  endloop
endfacet
facet normal 3.622919748115525e-16 4.832534569757796e-16 -1.0
  outer loop
    vertex 0.0 0.05499999999999996 0.002499999999999984
    vertex -0.000999999999999987 0.05599999999999995 0.002499999999999984
    vertex 0.08809942199916267 0.05599999999999995 0.0025000000000000404
  endloop
endfacet
facet normal 3.622919748115525e-16 4.832534569757796e-16 -1.0
  outer loop
    vertex 0.0 0.05499999999999996 0.002499999999999984
    vertex 0.08809942199916267 0.05599999999999995 0.0025000000000000404
    vertex 0.08737500000000016 0.05499999999999996 0.0025000000000000517
  endloop
endfacet
facet normal 3.622919748115525e-16 4.832534569757796e-16 -1.0
  outer loop
    vertex 0.08737500000000016 0.05499999999999996 0.0025000000000000517
    vertex 0.08809942199916267 0.05599999999999995 0.0025000000000000404
    vertex 0.08809942199916267 -0.000999999999999953 0.0024999999999999953
  endloop
endfacet
facet normal 0.0 1.0 0.0
  outer loop
    vertex 0.0 0.0 0.0024999999999999953
    vertex 0.08737500000000016 0.0 0.0
    vertex 0.0 0.0 0.0
  endloop
endfacet
facet normal 0.0 1.0 0.0
  outer loop
    vertex 0.08737500000000016 0.0 0.0
    vertex 0.0 0.0 0.0024999999999999953
    vertex 0.08737500000000016 0.0 0.0024999999999999953
  endloop
endfacet
facet normal 1.0 0.0 0.0
  outer loop
    vertex 0.0 0.05499999999999996 -1.127986593019159e-17
    vertex 0.0 0.0 0.0024999999999999953
    vertex 0.0 0.0 0.0
  endloop
endfacet
facet normal 1.0 0.0 0.0
  outer loop
    vertex 0.0 0.0 0.0024999999999999953
    vertex 0.0 0.05499999999999996 -1.127986593019159e-17
    vertex 0.0 0.05499999999999996 0.002499999999999984
  endloop
endfacet
endsolid Untitled-632da3ca
